<svg xmlns="http://www.w3.org/2000/svg" viewBox="0 0 1600 1000" role="img" aria-labelledby="title desc">
  <title id="title">Organic oils poster</title>
  <desc id="desc">Promotional artwork showing organic oil bottles, natural ingredients, and soft green background.</desc>
  <defs>
    <linearGradient id="bg" x1="0%" y1="0%" x2="100%" y2="100%">
      <stop offset="0%" stop-color="#f4e8bb" />
      <stop offset="45%" stop-color="#c8d48e" />
      <stop offset="100%" stop-color="#88a04e" />
    </linearGradient>
    <linearGradient id="sun" x1="0%" y1="0%" x2="100%" y2="100%">
      <stop offset="0%" stop-color="#fff7c7" stop-opacity="0.95" />
      <stop offset="100%" stop-color="#ffd660" stop-opacity="0.15" />
    </linearGradient>
    <linearGradient id="glass" x1="0%" y1="0%" x2="0%" y2="100%">
      <stop offset="0%" stop-color="#ffef97" />
      <stop offset="100%" stop-color="#d89617" />
    </linearGradient>
    <linearGradient id="glassTall" x1="0%" y1="0%" x2="0%" y2="100%">
      <stop offset="0%" stop-color="#ffe88e" />
      <stop offset="100%" stop-color="#ca7e0a" />
    </linearGradient>
    <linearGradient id="table" x1="0%" y1="0%" x2="0%" y2="100%">
      <stop offset="0%" stop-color="#8b5a34" />
      <stop offset="100%" stop-color="#5d3620" />
    </linearGradient>
    <filter id="blur40">
      <feGaussianBlur stdDeviation="40" />
    </filter>
    <filter id="shadow" x="-20%" y="-20%" width="140%" height="160%">
      <feDropShadow dx="0" dy="14" stdDeviation="18" flood-color="#6c4b1c" flood-opacity="0.22" />
    </filter>
  </defs>

  <rect width="1600" height="1000" fill="url(#bg)" />
  <circle cx="1380" cy="120" r="170" fill="url(#sun)" />
  <circle cx="380" cy="180" r="220" fill="#ffffff" opacity="0.18" filter="url(#blur40)" />
  <circle cx="1040" cy="360" r="260" fill="#ffffff" opacity="0.12" filter="url(#blur40)" />
  <path d="M1290 175c115 32 212 108 274 199-38 9-110-3-182-37-67-32-118-70-150-108 15-24 29-42 58-54z" fill="#a7b705" opacity="0.85" />
  <path d="M1336 269c74 30 145 73 205 126-61 13-115 0-175-29-52-25-100-58-138-94 22-17 56-18 108-3z" fill="#cad70f" opacity="0.82" />

  <g opacity="0.95">
    <ellipse cx="370" cy="860" rx="160" ry="56" fill="#5d3620" opacity="0.18" />
    <ellipse cx="795" cy="852" rx="160" ry="58" fill="#5d3620" opacity="0.18" />
    <ellipse cx="1140" cy="850" rx="140" ry="54" fill="#5d3620" opacity="0.16" />
  </g>

  <rect x="0" y="818" width="1600" height="182" fill="url(#table)" />

  <g transform="translate(95 86)" fill="#35562f">
    <text x="140" y="52" font-family="Georgia, serif" font-size="36" letter-spacing="2">PURE. ORGANIC.</text>
    <text x="0" y="142" font-family="Georgia, serif" font-size="78" font-weight="500">OILS FOR</text>
    <text x="0" y="230" font-family="Georgia, serif" font-size="78" font-weight="500">GROWING</text>
    <text x="0" y="318" font-family="Georgia, serif" font-size="78" font-weight="500">BUSINESSES</text>
    <path d="M506 148c29 5 53 20 70 46-11 29-33 51-64 67-28-7-48-22-61-42 9-34 27-56 55-71z" fill="#4f7d35" />
    <path d="M0 346h520" stroke="#35562f" stroke-width="2" />
    <text x="0" y="398" font-family="Arial, sans-serif" font-size="28" font-weight="700" letter-spacing="1">NATURE'S GOODNESS, BOTTLED FOR YOU</text>

    <g transform="translate(20 448)" font-family="Arial, sans-serif" font-size="23" font-weight="700">
      <g transform="translate(0 0)">
        <path d="M20 0c20 4 35 12 46 28-7 18-19 31-38 42-18-3-30-12-38-26 6-21 15-34 30-44z" fill="#4f7d35" />
        <path d="M29 21c-10 15-17 30-20 46" stroke="#e7f0c2" stroke-width="2" />
        <text x="-6" y="86">100%</text>
        <text x="-28" y="114">NATURAL</text>
      </g>
      <g transform="translate(180 0)">
        <path d="M30 0c18 25 28 46 28 65 0 19-13 33-28 33-15 0-28-14-28-33 0-19 10-40 28-65z" fill="#35562f" />
        <text x="-16" y="86">COLD PRESSED</text>
        <text x="9" y="114">GOODNESS</text>
      </g>
      <g transform="translate(420 0)">
        <circle cx="34" cy="38" r="29" fill="none" stroke="#35562f" stroke-width="5" />
        <path d="M12 34h44M34 10c8 8 10 17 10 28 0 9-2 18-8 29M25 13c-7 6-12 14-12 25 0 11 5 22 12 30M17 55c9-5 18-8 34-8M18 23c10 5 20 8 32 8" stroke="#35562f" stroke-width="3" fill="none" />
        <text x="-8" y="86">PURE</text>
        <text x="-13" y="114">&amp; SAFE</text>
      </g>
    </g>
  </g>

  <g filter="url(#shadow)">
    <ellipse cx="290" cy="806" rx="140" ry="42" fill="#6b4126" />
    <path d="M156 756c31-26 243-25 273 0 10 8 17 37 17 50-46 20-269 19-306 0 0-13 5-39 16-50z" fill="#7f4b2c" />
    <path d="M170 718c34-30 210-28 246 0 9 7 14 24 14 38-44 17-233 18-274 0 0-15 5-29 14-38z" fill="#99613a" />
    <ellipse cx="196" cy="872" rx="20" ry="13" fill="#b97937" />
    <ellipse cx="234" cy="898" rx="18" ry="12" fill="#b97937" />
    <ellipse cx="280" cy="886" rx="20" ry="13" fill="#b97937" />
    <ellipse cx="336" cy="900" rx="18" ry="12" fill="#b97937" />
    <ellipse cx="378" cy="878" rx="20" ry="13" fill="#b97937" />
    <ellipse cx="418" cy="905" rx="19" ry="12" fill="#b97937" />
    <ellipse cx="455" cy="890" rx="18" ry="11" fill="#b97937" />
    <ellipse cx="265" cy="744" rx="72" ry="42" fill="#d39f67" />
  </g>

  <g filter="url(#shadow)">
    <ellipse cx="792" cy="810" rx="90" ry="38" fill="#694026" />
    <path d="M720 756c18-13 123-14 143 0 5 4 10 19 10 28-26 10-142 11-162 0 0-8 4-23 9-28z" fill="#855130" />
    <path d="M732 735c20-12 101-11 121 0 5 3 8 13 8 19-25 8-112 8-137 0 0-7 3-16 8-19z" fill="#9b633b" />
    <path d="M738 780c20-16 91-17 112 0l-24 68c-19 13-45 20-64 20-19 0-39-7-56-20z" fill="#f0f0e7" />
    <path d="M772 792c9 13 22 27 37 46M742 813c15 17 29 33 44 49M812 794c-11 13-20 25-33 42" stroke="#f7f7ef" stroke-width="10" stroke-linecap="round" />
  </g>

  <g filter="url(#shadow)">
    <path d="M665 400c18-18 133-19 152 0 9 8 13 20 13 39 0 11-4 20-13 30-18 16-132 16-152 0-9-9-13-18-13-30 0-18 4-31 13-39z" fill="#c19967" />
    <path d="M685 406c19-12 94-12 112 0l-9 29c-20 10-72 10-94 0z" fill="#9c7147" />
    <rect x="675" y="430" width="132" height="321" rx="22" fill="url(#glass)" />
    <rect x="720" y="541" width="43" height="94" rx="18" fill="#f8f1d5" opacity="0.9" />
    <rect x="691" y="560" width="104" height="114" rx="12" fill="#d9ba72" opacity="0.82" />
    <text x="742" y="599" fill="#7b5323" font-family="Georgia, serif" font-size="28" text-anchor="middle">GROUNDNUT</text>
    <text x="742" y="631" fill="#7b5323" font-family="Georgia, serif" font-size="28" text-anchor="middle">OIL</text>
    <path d="M742 666c18 9 28 24 31 48-16-6-28-17-38-31-10 14-22 25-38 31 5-21 18-39 45-48z" fill="#8ca33d" />
    <path d="M742 678v46M724 692h35M729 709h27" stroke="#6e8433" stroke-width="3" />
  </g>

  <g filter="url(#shadow)">
    <path d="M1013 182h43c7 0 12 5 12 12v36c0 8-5 13-12 13h-43c-7 0-12-5-12-13v-36c0-7 5-12 12-12z" fill="#507631" />
    <path d="M1016 238c11-13 38-13 50 0l34 36v15c38 4 55 28 55 65v64c0 37-17 61-55 66v17l24 28c12 14 18 36 18 64v114c0 38-31 68-70 68h-55c-39 0-70-30-70-68V609c0-28 7-50 18-64l24-28v-16c-40-4-58-29-58-66v-64c0-38 18-61 58-66v-15z" fill="url(#glassTall)" />
    <path d="M1023 228c7-9 21-9 28 0l19 27h-67z" fill="#c99c67" />
    <path d="M970 568h150v172c0 28-22 50-50 50h-50c-28 0-50-22-50-50z" fill="#f7d95c" opacity="0.18" />
    <rect x="982" y="523" width="129" height="177" rx="12" fill="#d9ba72" opacity="0.82" />
    <text x="1047" y="589" fill="#7b5323" font-family="Georgia, serif" font-size="29" text-anchor="middle">COCONUT</text>
    <text x="1047" y="624" fill="#7b5323" font-family="Georgia, serif" font-size="29" text-anchor="middle">OIL</text>
    <path d="M1032 673c18-18 52-19 70 0-24 8-32 16-35 30-4-14-13-22-35-30z" fill="#b17f37" />
    <path d="M1026 676c13-8 27-12 40-12 13 0 27 4 40 12" stroke="#8f6a2b" stroke-width="3" fill="none" />
  </g>

  <g filter="url(#shadow)">
    <path d="M1230 352c14-18 100-18 116 0 6 7 10 18 10 33 0 10-3 19-10 27-14 14-99 14-116 0-7-8-10-17-10-27 0-15 3-27 10-33z" fill="#c7a06c" />
    <path d="M1247 357c14-10 70-10 84 0l-7 24c-15 8-54 8-70 0z" fill="#9b7249" />
    <rect x="1241" y="382" width="102" height="366" rx="20" fill="url(#glass)" />
    <rect x="1252" y="545" width="81" height="167" rx="12" fill="#d9ba72" opacity="0.82" />
    <text x="1293" y="592" fill="#7b5323" font-family="Georgia, serif" font-size="27" text-anchor="middle">CASTOR</text>
    <text x="1293" y="625" fill="#7b5323" font-family="Georgia, serif" font-size="27" text-anchor="middle">OIL</text>
    <path d="M1293 660c-12 14-18 28-21 46M1293 660c12 14 18 28 21 46M1293 664v50M1275 687h36" stroke="#6e8433" stroke-width="3" stroke-linecap="round" />
  </g>

  <g opacity="0.92">
    <path d="M96 738c42 11 78 38 102 78-44 6-87-6-123-34-31-23-57-53-75-84 41-8 57-4 96 40z" fill="#57853b" />
    <path d="M133 688c35 5 63 22 84 52-38 8-66 0-96-19-24-16-46-38-60-62 30-7 42-5 72 29z" fill="#4d7935" />
    <path d="M590 358c38 9 69 33 91 71-41 6-77-6-110-31-28-22-52-51-68-84 35-6 52-1 87 44z" fill="#92b24a" />
    <path d="M1160 698c47 12 85 43 111 88-44 3-92-8-132-33-34-21-64-52-85-88 40-11 62-9 106 33z" fill="#7da33f" />
  </g>

  <g opacity="0.88" fill="#694026">
    <ellipse cx="1257" cy="878" rx="8" ry="12" />
    <ellipse cx="1280" cy="896" rx="8" ry="12" />
    <ellipse cx="1305" cy="882" rx="8" ry="12" />
    <ellipse cx="1330" cy="895" rx="8" ry="12" />
    <ellipse cx="1360" cy="878" rx="8" ry="12" />
    <ellipse cx="1388" cy="899" rx="8" ry="12" />
    <ellipse cx="1412" cy="881" rx="8" ry="12" />
  </g>
</svg>
